<svg width="415" height="384" viewBox="0 0 415 384" fill="none" xmlns="http://www.w3.org/2000/svg">
<g filter="url(#filter0_d_810_698)">
<path d="M374.182 301L341 252C341 252 391.252 269.441 385.549 301H374.182Z" fill="#F29653"/>
<path d="M32.2551 301L31 300.976C31.4854 287.028 32.9744 273.133 35.4554 259.399C40.8828 229.994 49.9077 210.682 62.2793 202L63 203.027C34.0998 223.307 32.2698 300.225 32.2551 301Z" fill="#F29653"/>
<path d="M48.2179 301L47 300.976C47.0262 299.593 47.7873 267.007 60.3007 258L61 259.022C48.9915 267.665 48.2238 300.668 48.2179 301Z" fill="#F29653"/>
<path d="M70 204C73.3137 204 76 201.09 76 197.5C76 193.91 73.3137 191 70 191C66.6863 191 64 193.91 64 197.5C64 201.09 66.6863 204 70 204Z" fill="#3E066F"/>
<path d="M67 257C70.3137 257 73 254.314 73 251C73 247.686 70.3137 245 67 245C63.6863 245 61 247.686 61 251C61 254.314 63.6863 257 67 257Z" fill="#3E066F"/>
<path d="M44.7493 260.352C45.8465 268.084 42.9867 275 42.9867 275C42.9867 275 38.3479 269.38 37.2507 261.648C36.1535 253.916 39.0133 247 39.0133 247C39.0133 247 43.652 252.62 44.7493 260.352Z" fill="#F29653"/>
<path d="M65.3175 225.749C58.1377 228.153 51 226.353 51 226.353C51 226.353 55.5028 220.655 62.6825 218.251C69.8622 215.847 77 217.647 77 217.647C77 217.647 72.4972 223.345 65.3175 225.749Z" fill="#F29653"/>
<path d="M65.9121 273.135C62.7025 274.123 59.2845 274.267 56 273.555C58.0855 270.954 60.8943 269 64.0879 267.928C67.2815 266.855 70.7238 266.709 74 267.508C71.8537 270.045 69.0647 271.986 65.9121 273.135Z" fill="#F29653"/>
<path d="M410.373 302H4.62712C4.4608 302 4.3013 301.947 4.18369 301.854C4.06608 301.76 4 301.633 4 301.5C4 301.367 4.06608 301.24 4.18369 301.146C4.3013 301.053 4.4608 301 4.62712 301H410.373C410.539 301 410.699 301.053 410.816 301.146C410.934 301.24 411 301.367 411 301.5C411 301.633 410.934 301.76 410.816 301.854C410.699 301.947 410.539 302 410.373 302Z" fill="#CBCBCB"/>
<path d="M261 331.302L255.876 345L202 331.218L209.562 311L261 331.302Z" fill="#A97676"/>
<path d="M275 332.688L258.227 376L257.675 375.79C253.168 374.072 249.534 370.648 247.572 366.272C245.609 361.896 245.479 356.926 247.21 352.455L247.211 352.454L257.455 326L275 332.688Z" fill="#2F2E41"/>
<path d="M178.741 164L155.169 166.198L154 236.043C154.312 239.466 155.959 242.631 158.586 244.86C161.213 247.089 164.612 248.205 168.055 247.969L183 246.944L178.741 164Z" fill="#F29653"/>
<path d="M261.56 160.209L245.926 160L245 243.985C248.455 244.105 251.896 243.484 255.11 242.159C258.323 240.835 261.24 238.837 263.678 236.289C266.116 233.741 268.022 230.698 269.279 227.35C270.535 224.002 271.115 220.421 270.981 216.83L261.56 160.209Z" fill="#F29653"/>
<path d="M168.233 273.441C167.853 275.836 167.301 278.201 166.582 280.518C165.772 282.785 164.521 284.882 163.78 287.173C161.419 294.476 164.692 302.619 169.92 308.255C174.454 313.124 180.306 316.583 186.771 318.215C191.487 319.396 196.391 319.566 201.251 319.73C214.71 320.184 228.515 320.591 241.268 316.285C245.297 314.892 249.189 313.132 252.894 311.028C254.064 310.473 255.095 309.665 255.911 308.663C256.884 307.285 257.008 305.497 257 303.813C256.971 298.134 255.814 292.483 256.089 286.811C256.241 283.668 256.832 280.529 256.541 277.396C256.138 273.839 254.641 270.492 252.254 267.814C249.867 265.136 246.707 263.257 243.207 262.436C239.589 261.663 235.836 262.084 232.153 262.436C222.593 263.351 212.991 263.778 203.387 263.717C193.573 263.654 183.82 262.163 174.056 262.008C171.168 261.962 171.226 262.848 170.307 265.63C169.46 268.19 168.768 270.798 168.233 273.441Z" fill="#2F2E41"/>
<path d="M130.001 268.867C127.374 268.21 124.668 267.924 121.961 268.017C119.116 268.173 116.338 268.93 113.811 270.237C111.283 271.543 109.065 273.37 107.302 275.595C105.54 277.821 104.274 280.394 103.589 283.143C102.904 285.893 102.815 288.755 103.329 291.542C103.985 294.56 105.057 297.473 106.515 300.199C108.648 304.502 111.205 308.796 115.153 311.553C117.462 313.166 120.135 314.172 122.776 315.161L143.567 322.95C146.626 324.095 149.685 325.241 152.774 326.304C168.292 331.638 184.472 334.836 200.862 335.81C205.854 336.106 210.922 336.188 215.792 335.058C216.948 334.79 218.181 334.39 218.85 333.415C219.247 332.728 219.48 331.961 219.533 331.171L220.813 322.265C220.993 321.011 221.166 319.691 220.704 318.51C220.118 317.014 218.649 316.072 217.248 315.272C203.579 307.465 187.619 303.159 176.114 292.444C173.405 289.922 171.139 285.924 167.848 284.21C164.116 282.267 159.721 281.158 155.864 279.368C147.431 275.454 139.141 270.956 130.001 268.867Z" fill="#2F2E41"/>
<path opacity="0.1" d="M150.485 280.067C157.972 282.38 189.582 298.402 195 303.996C194.274 304.254 169.633 290.642 168.894 290.423C162.173 288.434 155.415 286.433 149.032 283.523C147.748 282.938 140.691 280.186 141.011 278.589C141.371 276.787 149.156 279.657 150.485 280.067Z" fill="black"/>
<path d="M195.358 140.939L175.383 156.032C175.383 156.032 154.305 156.688 155.018 170.096C155.73 183.504 164.166 246.986 164.166 246.986L165.996 268.829L200.713 278.673C219.471 283.992 239.289 284.415 258.259 279.9L254.133 257.987C254.133 257.987 270.839 158.466 260.775 154.084C250.711 149.702 244.421 150.954 244.421 150.954L231.806 140L195.358 140.939Z" fill="#F29653"/>
<path d="M254 116.237C254 135.799 235.868 132.84 213.5 132.84C191.132 132.84 173 135.799 173 116.237C173 96.6751 181.857 62 213.5 62C246.233 62 254 96.6751 254 116.237Z" fill="#2F2E41"/>
<path d="M234.9 122.899C245.543 112.256 245.543 94.9999 234.9 84.3566C224.257 73.7134 207 73.7134 196.357 84.3566C185.714 94.9999 185.714 112.256 196.357 122.899C207 133.542 224.257 133.542 234.9 122.899Z" fill="#A97676"/>
<path d="M182 103H192.737L197.474 89.6154L198.421 103H203.553L206.316 95.1923L206.868 103H245C245 95.3087 241.972 87.9325 236.583 82.4939C231.194 77.0554 223.885 74 216.263 74H210.737C203.115 74 195.806 77.0554 190.417 82.4939C185.028 87.9325 182 95.3087 182 103Z" fill="#2F2E41"/>
<path d="M241 144H187V210H241V144Z" fill="#3E066F"/>
<path d="M190 330.704L195.124 344L249 330.623L241.438 311L190 330.704Z" fill="#A97676"/>
<path d="M192.545 325L202.789 351.454L202.79 351.455C204.521 355.926 204.391 360.896 202.428 365.272C200.466 369.648 196.832 373.072 192.325 374.79L191.773 375L175 331.688L192.545 325Z" fill="#2F2E41"/>
<path d="M297.621 263.132C301.965 262.044 306.469 261.737 310.921 262.225C314.476 262.616 318.14 263.603 320.736 266.06C323.895 269.05 324.91 273.674 324.995 278.019C325.134 286.673 322.259 295.107 316.86 301.88C315.541 303.593 313.974 305.1 312.208 306.35C310.304 307.539 308.275 308.515 306.157 309.261L259.181 327.756C246.823 332.621 234.421 337.501 221.531 340.709C220.83 341.046 220.024 341.092 219.289 340.837C218.554 340.581 217.951 340.044 217.613 339.344C217.603 339.323 217.593 339.301 217.583 339.28C213.467 333.411 210.014 327.107 207.287 320.48C207.158 320.323 207.069 320.137 207.027 319.937C206.985 319.738 206.992 319.532 207.047 319.336C207.102 319.14 207.204 318.96 207.343 318.812C207.482 318.663 207.656 318.55 207.848 318.483L241.074 299.427C243.454 298.062 245.861 296.677 247.837 294.776C249.273 293.386 250.448 291.752 251.309 289.95C251.997 288.515 252.062 285.126 252.941 284.065C253.803 283.025 256.749 282.942 258.11 282.534C260.029 281.947 261.909 281.238 263.737 280.411C271.169 277.092 277.788 272.269 284.913 268.383C288.909 266.102 293.179 264.338 297.621 263.132Z" fill="#2F2E41"/>
<path opacity="0.1" d="M278.667 277.61C272.922 281.865 265.485 285.776 259.791 290.142C257.848 291.633 225.458 309.591 225 311.976C230.311 312.858 264.145 289.517 268.986 287.188C273.827 284.859 278.118 281.574 282.371 278.314C283.454 277.483 288.047 274.985 284.936 274.057C283.183 273.534 279.96 276.76 278.667 277.61Z" fill="black"/>
<path d="M380.5 113C391.27 113 400 104.046 400 93C400 81.9543 391.27 73 380.5 73C369.73 73 361 81.9543 361 93C361 104.046 369.73 113 380.5 113Z" fill="#3E066F"/>
<path d="M344.5 116C351.956 116 358 109.956 358 102.5C358 95.0442 351.956 89 344.5 89C337.044 89 331 95.0442 331 102.5C331 109.956 337.044 116 344.5 116Z" fill="#3E066F"/>
<path d="M93 107C99.0751 107 104 102.075 104 96C104 89.9249 99.0751 85 93 85C86.9249 85 82 89.9249 82 96C82 102.075 86.9249 107 93 107Z" fill="#3E066F"/>
<path d="M111.5 115C115.642 115 119 111.418 119 107C119 102.582 115.642 99 111.5 99C107.358 99 104 102.582 104 107C104 111.418 107.358 115 111.5 115Z" fill="#3E066F"/>
<path d="M218 17C222.418 17 226 13.1944 226 8.5C226 3.80558 222.418 0 218 0C213.582 0 210 3.80558 210 8.5C210 13.1944 213.582 17 218 17Z" fill="#3E066F"/>
<path opacity="0.17" d="M168 185.646L168.755 180C168.755 180 196.936 181.992 192.533 188.691C188.13 195.391 177.436 196 177.436 196L168 185.646Z" fill="#2F2E41"/>
<path d="M189.177 160.066C190.796 160.244 192.356 160.776 193.744 161.624C195.132 162.473 196.315 163.616 197.206 164.973C198.019 166.212 198.571 167.601 198.831 169.057C199.09 170.513 199.051 172.007 198.716 173.448C198.381 174.889 197.757 176.247 196.882 177.442C196.006 178.637 194.897 179.643 193.62 180.401C193.152 180.676 192.664 180.915 192.159 181.115L174.785 234.016C174.281 235.06 173.575 235.995 172.708 236.766C171.84 237.537 170.828 238.131 169.73 238.511C168.631 238.892 167.468 239.053 166.307 238.985C165.145 238.916 164.009 238.62 162.963 238.114C161.917 237.607 160.982 236.899 160.212 236.031C159.442 235.164 158.852 234.153 158.475 233.058C158.099 231.962 157.943 230.803 158.018 229.648C158.093 228.492 158.397 227.363 158.912 226.325L177.389 174.011C176.886 172.28 176.819 170.452 177.194 168.69C177.57 166.927 178.376 165.283 179.541 163.905C180.707 162.526 182.196 161.454 183.877 160.785C185.557 160.115 187.378 159.868 189.177 160.066Z" fill="#A97676"/>
<path d="M168.203 180C168.203 180 177.933 197.041 192 188.522L178.368 242H166.882L155 239.725L158.327 217.63L168.203 180Z" fill="#F29653"/>
<path d="M239.01 191.696L231 180.385C231 180.385 234.85 168.653 249.776 172.944C249.776 172.944 259.275 194.813 239.01 191.696Z" fill="#D18550"/>
<path d="M240.721 153.033C243.1 154.12 245.003 156.01 246.084 158.36C247.165 160.71 247.352 163.362 246.61 165.836L265.088 217.485C265.603 218.51 265.907 219.625 265.982 220.766C266.057 221.907 265.901 223.051 265.525 224.133C265.148 225.214 264.558 226.212 263.788 227.069C263.018 227.926 262.083 228.624 261.037 229.125C259.991 229.625 258.855 229.918 257.693 229.985C256.532 230.052 255.369 229.893 254.27 229.517C253.171 229.141 252.159 228.556 251.292 227.794C250.424 227.032 249.719 226.11 249.215 225.079L231.841 172.85C231.336 172.652 230.847 172.416 230.38 172.144C229.103 171.397 227.994 170.403 227.118 169.223C226.243 168.044 225.619 166.702 225.284 165.28C224.949 163.857 224.91 162.383 225.169 160.945C225.429 159.507 225.981 158.136 226.794 156.913C227.685 155.573 228.868 154.444 230.256 153.606C231.644 152.769 233.204 152.243 234.823 152.068C236.842 151.843 238.885 152.177 240.721 153.033Z" fill="#A97676"/>
<path d="M231 180.5C231 180.5 244.428 188.812 250.079 173L269 223.826L263.378 233.857L262.565 233.927C259.21 234.212 255.838 233.662 252.738 232.325C249.638 230.988 246.903 228.903 244.767 226.249C240.41 220.837 237.444 214.402 236.137 207.527L231 180.5Z" fill="#F29653"/>
</g>
<defs>
<filter id="filter0_d_810_698" x="0" y="0" width="415" height="384" filterUnits="userSpaceOnUse" color-interpolation-filters="sRGB">
<feFlood flood-opacity="0" result="BackgroundImageFix"/>
<feColorMatrix in="SourceAlpha" type="matrix" values="0 0 0 0 0 0 0 0 0 0 0 0 0 0 0 0 0 0 127 0" result="hardAlpha"/>
<feOffset dy="4"/>
<feGaussianBlur stdDeviation="2"/>
<feComposite in2="hardAlpha" operator="out"/>
<feColorMatrix type="matrix" values="0 0 0 0 0 0 0 0 0 0 0 0 0 0 0 0 0 0 0.25 0"/>
<feBlend mode="normal" in2="BackgroundImageFix" result="effect1_dropShadow_810_698"/>
<feBlend mode="normal" in="SourceGraphic" in2="effect1_dropShadow_810_698" result="shape"/>
</filter>
</defs>
</svg>
