<svg width="549" height="360" viewBox="0 0 549 360" fill="none" xmlns="http://www.w3.org/2000/svg">
<g clip-path="url(#clip0_810_557)">
<path d="M464.128 322.073H124.617C121.461 322.073 118.895 318.78 118.895 314.732C118.895 310.684 121.461 307.391 124.617 307.391H464.128C467.283 307.391 469.85 310.684 469.85 314.732C469.85 318.78 467.283 322.073 464.128 322.073Z" fill="#E6E6E6"/>
<path d="M388.787 360H199.957C196.802 360 194.235 356.707 194.235 352.659C194.235 348.611 196.802 345.318 199.957 345.318H388.787C391.942 345.318 394.509 348.611 394.509 352.659C394.509 356.707 391.942 360 388.787 360Z" fill="#E6E6E6"/>
<path d="M162.397 66.0376L183.795 54.4854L192.972 78.6217L170.487 90.3955L162.397 66.0376Z" fill="#FFB6B6"/>
<path opacity="0.1" d="M162.397 66.0376L183.795 54.4854L192.972 78.6217L170.487 90.3955L162.397 66.0376Z" fill="black"/>
<path d="M165.439 56.8401L186.547 88.0408C186.547 88.0408 171.863 147.499 157.179 152.797C142.494 158.095 115.42 183.998 115.42 183.998L81.4629 155.74L97.9827 124.54C97.9827 124.54 137.906 54.4854 148.46 54.4854C159.014 54.4854 165.439 56.8401 165.439 56.8401V56.8401Z" fill="#3E066F"/>
<path d="M136.919 260.233H87.782L84.6754 254.906L71.9918 233.153L69.0733 228.15C69.0733 228.15 58.0601 202.247 60.3545 178.699C62.6489 155.152 86.5109 149.854 86.5109 149.854H87.4929L116.705 182.785L114.962 213.432L124.213 233.153L136.919 260.233Z" fill="#2F2E41"/>
<path d="M97.8458 260.233H84.6758V235.214L97.8458 260.233Z" fill="#2F2E41"/>
<path d="M459.872 85.2349L464.784 124.542L433.749 125.055V90.8813L459.872 85.2349Z" fill="#FFB6B6"/>
<path opacity="0.1" d="M459.872 85.2349L464.784 124.542L433.749 125.055V90.8813L459.872 85.2349Z" fill="black"/>
<path d="M533.795 222.251L532.157 233.153L528.091 260.233H446.414C447.052 254.164 447.924 245.428 448.855 235.997C448.947 235.055 449.043 234.107 449.135 233.153C451.471 209.447 454.027 182.62 454.027 182.62L464.765 184.292L485.598 187.53L494.087 188.849L516.821 192.387C528.155 194.147 535.952 207.863 533.795 222.251Z" fill="#F2F2F2"/>
<path d="M381.904 222.251L380.266 233.153L376.2 260.233H294.523C295.161 254.164 296.033 245.428 296.965 235.997C297.056 235.055 297.153 234.107 297.245 233.153C299.58 209.447 302.136 182.62 302.136 182.62L312.874 184.292L333.708 187.53L342.197 188.849L364.93 192.387C376.264 194.147 384.061 207.863 381.904 222.251Z" fill="#F2F2F2"/>
<path d="M497.493 260.233H453.192C453.867 259.215 454.248 258.626 454.248 258.626L467.528 255.812L494.891 250.02C494.891 250.02 496.139 254.158 497.493 260.233V260.233Z" fill="#2F2E41"/>
<path d="M436.548 260.233H369.647C370.313 258.538 371.001 256.837 371.708 255.141C372.653 252.875 373.663 250.856 374.732 249.06C375.443 247.865 376.177 246.77 376.935 245.769C379.16 242.832 381.583 240.695 384.134 239.229C393.243 233.972 403.977 237.192 413.118 242.431C416.55 244.398 419.758 246.646 422.571 248.836C427.527 252.698 431.266 256.383 432.859 258.02C433.409 258.579 433.703 258.903 433.703 258.903L436.548 260.233V260.233Z" fill="#2F2E41"/>
<path d="M383.474 260.233H373.984L376.485 256.507L377.899 254.399L378.504 255.029L383.474 260.233Z" fill="#FFB6B6"/>
<path d="M500.733 260.233H419.015L422.571 248.836L427.458 233.154L429.913 225.277L427.885 214.204C427.885 214.204 426.885 213.297 425.361 211.666C419.933 205.897 407.85 191.038 410.626 175.78C413.784 158.413 417.748 124.569 418.588 117.275C418.694 116.363 418.749 115.868 418.749 115.868L430.542 112.16L430.932 112.036L432.199 111.636H463.788L487.021 131.822L487.017 132.034L485.599 187.53L484.993 211.272C484.993 211.272 484.264 214.698 484.438 220.02C484.553 223.67 485.09 228.209 486.576 233.154C488.15 238.411 490.798 244.121 495.144 249.696C498.425 253.905 500.017 257.449 500.733 260.233V260.233Z" fill="#3E066F"/>
<path d="M494.088 188.849C493.312 197.008 492.569 202.806 492.569 202.806L484.438 220.02L478.234 233.154L467.528 255.812L465.958 259.138L464.839 260.233H431.253L432.859 258.02L448.856 235.997L450.925 233.154L454.28 228.532L464.765 184.292L477.123 132.152C477.123 132.152 482.129 129.915 487.017 132.034C489.586 133.147 492.128 135.466 493.877 139.964C497.222 148.547 495.593 173.095 494.088 188.849Z" fill="#3E066F"/>
<path d="M435.006 187.424L425.36 211.666L416.811 233.153L413.117 242.431L411.662 246.093L399.194 260.233H370.964L375.617 252.816L377.347 250.049L384.134 239.229L387.943 233.153L398.281 216.658L401.039 141.53C401.496 129.07 408.897 118.997 418.529 117.288C418.549 117.284 418.569 117.28 418.587 117.275C421.716 116.469 426.691 116.233 430.541 121.008C430.674 121.166 430.802 121.337 430.931 121.514C431.578 122.391 432.188 123.421 432.748 124.628C432.803 124.746 432.858 124.869 432.909 124.993C433.069 125.37 433.225 125.782 433.368 126.223C438.282 140.905 435.006 187.424 435.006 187.424L435.006 187.424Z" fill="#3E066F"/>
<path d="M309.581 77.8125L328.847 112.766L295.241 114.053L291.634 81.2054L309.581 77.8125Z" fill="#A0616A"/>
<path opacity="0.1" d="M309.581 77.8125L328.847 112.766L295.241 114.053L291.634 81.2054L309.581 77.8125Z" fill="black"/>
<path d="M214.571 150.232C212.099 141.084 206.416 135.305 201.878 137.324C197.34 139.343 195.667 148.395 198.14 157.546C199.089 161.219 200.71 164.547 202.868 167.252L213.723 205.844L227.731 198.922L215.542 161.612C215.932 157.774 215.599 153.872 214.571 150.232Z" fill="#A0616A"/>
<path d="M344.981 132.422L344.955 168.044L342.371 181.201L337.057 208.263L333.189 233.153L330.307 251.697L329.279 258.32C328.504 258.985 327.733 259.621 326.962 260.233H259.841C256.027 257.295 253.894 255.011 253.894 255.011C253.894 255.011 254.949 253.74 256.156 251.697C258.193 248.247 260.658 242.596 259.148 237.197C258.831 236.067 258.749 234.69 258.845 233.153C259.46 223.016 267.747 205.873 267.747 205.873L266.031 180.43L265.278 169.28L270.585 114.914L287.88 102.016L290.866 101.645L320.34 99.6025L332.522 100.503L333.078 100.697L344.981 132.422L344.981 132.422Z" fill="#F29653"/>
<path d="M346.29 260.233H331.606L330.959 251.697L330.945 251.527L335.103 251.162L345.919 250.214L346.107 255.324L346.254 259.244L346.29 260.233Z" fill="#FFB6B6"/>
<path d="M349.905 141.035L356.073 187.465L351.039 233.154L350.255 240.265L348.869 252.822L348.442 256.684L348.456 257.101L348.562 260.233H331.124L330.481 251.697L330.426 250.932L329.114 233.448L329.091 233.154L326.306 196.078L331.766 169.28L332.17 167.308V167.302L334.546 121.42L332.706 100.568L332.688 100.374C332.724 100.403 332.756 100.433 332.793 100.462C332.89 100.539 332.986 100.615 333.078 100.698C343.797 109.422 350.185 124.728 349.905 141.035Z" fill="#F29653"/>
<path d="M276.833 123.811L270.127 114.914C270.127 114.914 255.772 123.216 255.057 127.821C254.341 132.427 228.996 200.076 228.996 200.076L217.969 162.294L203.616 174.588C203.616 174.588 215.133 233.246 225.904 235.999C236.675 238.753 272.774 166.572 272.774 166.572L276.833 123.811H276.833Z" fill="#F29653"/>
<path d="M443.424 102.73C455.746 102.73 465.735 89.9148 465.735 74.107C465.735 58.2991 455.746 45.4844 443.424 45.4844C431.101 45.4844 421.112 58.2991 421.112 74.107C421.112 89.9148 431.101 102.73 443.424 102.73Z" fill="#FFB6B6"/>
<path d="M452.674 85.3601C452.674 85.3601 450.362 77.1852 449.05 72.9432C447.739 68.7012 448.594 63.1963 448.594 63.1963C448.594 63.1963 431.092 58.2404 424.238 63.1525C417.385 68.0647 416.924 43.3575 423.88 36.6331C423.88 36.6331 425.743 40.7862 425.02 41.9802L424.297 43.1743C424.297 43.1743 429.561 28.8932 438.449 28.1782C438.449 28.1782 442.662 32.4907 441.074 33.9142C439.487 35.3377 452.781 25.8673 455.093 34.0422C455.093 34.0422 463.57 35.9796 461.918 39.6938L462.057 42.2573C462.057 42.2573 469.74 41.234 469.192 48.218C469.192 48.218 466.608 47.5572 464.955 48.9731C463.302 50.3889 468.887 57.1024 468.887 57.1024C468.887 57.1024 472.244 85.0778 460.603 93.1323C460.603 93.1323 462.491 80.4012 458.048 82.4824C453.604 84.5637 452.674 85.3601 452.674 85.3601V85.3601Z" fill="#2F2E41"/>
<path d="M549.109 267.14H26.9181C19.5269 267.14 13.5137 259.425 13.5137 249.943C13.5137 240.461 19.5269 232.747 26.9181 232.747H549.109C556.5 232.747 562.514 240.461 562.514 249.943C562.514 259.425 556.5 267.14 549.109 267.14Z" fill="#E6E6E6"/>
<path d="M341.925 180.331L340.91 241.11C340.812 246.993 337.066 251.697 332.478 251.697H245.326C240.848 251.697 237.15 247.206 236.906 241.469L234.316 180.69C234.051 174.492 237.898 169.28 242.736 169.28H333.494C338.222 169.28 342.026 174.267 341.925 180.331Z" fill="#3F3D56"/>
<path d="M531.3 180.331L530.285 241.11C530.187 246.993 526.441 251.697 521.853 251.697H434.701C430.223 251.697 426.525 247.206 426.281 241.469L423.691 180.69C423.426 174.492 427.273 169.28 432.111 169.28H522.869C527.597 169.28 531.402 174.267 531.3 180.331Z" fill="#3F3D56"/>
<path d="M201.232 80.7089C212.748 80.7089 222.084 68.7327 222.084 53.9592C222.084 39.1857 212.748 27.2095 201.232 27.2095C189.716 27.2095 180.381 39.1857 180.381 53.9592C180.381 68.7327 189.716 80.7089 201.232 80.7089Z" fill="#FFB6B6"/>
<path d="M166.357 123.951L168.652 155.741L184.254 236.391L170.775 242.452L148.002 154.563L144.856 119.242L166.357 123.951Z" fill="#FFB6B6"/>
<path d="M160.151 180.331L159.136 241.11C159.037 246.993 155.291 251.697 150.704 251.697H63.552C59.0732 251.697 55.3756 247.206 55.1312 241.469L52.5412 180.69C52.277 174.492 56.1235 169.28 60.962 169.28H151.719C156.448 169.28 160.252 174.267 160.151 180.331H160.151Z" fill="#3F3D56"/>
<path d="M186.738 252.108C195.833 252.108 203.205 247.924 203.205 242.764C203.205 237.603 195.833 233.42 186.738 233.42C177.643 233.42 170.271 237.603 170.271 242.764C170.271 247.924 177.643 252.108 186.738 252.108Z" fill="#FFB6B6"/>
<path d="M134.006 128.811L143.413 64.493C143.413 64.493 169.569 59.7834 170.487 70.9686C171.405 82.1538 169.831 136.817 169.831 136.817L134.006 128.811V128.811Z" fill="#3E066F"/>
<path d="M192.816 58.165C192.816 58.165 205.714 52.2592 211.155 49.0817C216.596 45.9041 227.405 68.0674 227.646 56.3622C227.886 44.6571 224.151 39.7484 224.151 39.7484C224.151 39.7484 223.219 14.1417 203.109 17.3432C203.109 17.3432 207.532 4.53184 193.013 2.5508C178.493 0.569768 155.905 45.5503 157.927 52.2724C159.95 58.9945 162.376 64.552 156.636 71.7394C150.897 78.9268 140.15 119.491 148.326 130.406C156.503 141.322 157.04 146.058 151.437 152.849C145.835 159.64 132.592 174.405 146.911 176.969C161.229 179.532 145.601 177.618 156.275 165.572C166.95 153.527 182.526 154.019 176.71 134.693C170.894 115.367 180.999 87.6725 179.735 83.4712C178.47 79.2699 182.567 52.5913 182.567 52.5913C182.567 52.5913 192.103 50.7941 192.816 58.165V58.165Z" fill="#2F2E41"/>
<path d="M299.279 90.4636C311.815 90.4636 321.977 77.4266 321.977 61.3446C321.977 45.2626 311.815 32.2256 299.279 32.2256C286.743 32.2256 276.581 45.2626 276.581 61.3446C276.581 77.4266 286.743 90.4636 299.279 90.4636Z" fill="#A0616A"/>
<path d="M301.091 22.196C300.434 22.6879 299.555 21.9437 299.344 21.0062C299.133 20.0688 299.379 19.0734 299.622 18.149L300.847 13.4956C301.715 10.1952 302.637 6.77959 304.518 4.26761C307.357 0.476182 311.87 -0.48834 315.932 0.210422C321.148 1.10777 326.295 4.73134 328.72 10.7234C331.145 16.7154 330.113 25.0765 325.73 28.8149C331.976 37.9992 334.154 48.2347 333.81 60.4152C333.466 72.5957 323.119 83.8057 316.372 92.3864C314.865 91.2146 313.495 85.7229 314.324 83.7279C315.152 81.7329 313.965 79.4217 314.991 77.5841C316.017 75.7465 316.876 78.6725 315.839 76.8453C315.184 75.6923 317.739 73.0398 316.766 72.3498C312.059 69.012 310.494 61.4854 307.537 55.7218C303.972 48.7697 297.869 44.0617 291.41 43.2807C287.853 42.8504 284.095 43.6297 281.179 46.2794C278.263 48.9291 276.375 53.664 277.051 58.1655C275.3 55.8843 274.428 52.5412 274.757 49.3673C275.086 46.1934 276.608 43.2585 278.763 41.6433C277.452 36.0845 278.575 29.6902 281.616 25.3886C284.657 21.087 296.995 21.8196 301.435 22.9518L301.091 22.196Z" fill="#2F2E41"/>
<path d="M301.78 43.4492C307.661 44.2636 311.907 50.7985 315.492 56.8335C317.559 60.312 319.724 64.1533 319.672 68.5264C319.619 72.9476 317.315 76.7398 316.214 80.9298C314.414 87.7785 316.168 95.9269 320.453 100.62C316.219 101.65 311.642 97.5778 310.911 92.1294C310.06 85.7868 313.808 79.6652 313.364 73.2546C312.973 67.6068 309.504 63.2602 306.554 59.0373C303.605 54.8145 300.835 49.2109 302.192 43.8147L301.78 43.4492Z" fill="#2F2E41"/>
</g>
<defs>
<clipPath id="clip0_810_557">
<rect width="549" height="360" fill="white"/>
</clipPath>
</defs>
</svg>
