<svg width="729" height="195" viewBox="0 0 729 195" fill="none" xmlns="http://www.w3.org/2000/svg">
<path fill-rule="evenodd" clip-rule="evenodd" d="M80.7749 114.611H125.444L139.54 145.205L66.9417 145.561L80.7749 114.611Z" fill="url(#paint0_linear_11_99)"/>
<path fill-rule="evenodd" clip-rule="evenodd" d="M278.389 194.012C292.324 194.012 304.596 191.321 315.206 185.938C325.815 180.556 334.683 173.352 341.809 164.328C348.935 155.305 354.319 144.975 357.961 133.339C361.603 121.703 363.424 109.552 363.424 96.8871C363.424 84.3803 361.603 72.3091 357.961 60.673C354.319 49.0369 348.935 38.7069 341.809 29.6837C334.683 20.6596 325.815 13.4562 315.206 8.07379C304.596 2.69078 292.324 0 278.389 0C264.296 0 251.944 2.69078 241.334 8.07379C230.725 13.4562 221.857 20.6596 214.731 29.6837C207.606 38.7069 202.261 49.0369 198.698 60.673C195.135 72.3091 193.354 84.3803 193.354 96.8871C193.354 109.552 195.135 121.703 198.698 133.339C202.261 144.975 207.606 155.305 214.731 164.328C221.857 173.352 230.725 180.556 241.334 185.938C251.944 191.321 264.296 194.012 278.389 194.012ZM328.982 96.8871C328.982 104.961 328.032 112.917 326.132 120.753C324.232 128.589 321.223 135.634 317.106 141.888C312.989 148.141 307.763 153.167 301.429 156.967C295.095 160.767 287.415 162.666 278.389 162.666C269.363 162.666 261.643 160.767 255.23 156.967C248.817 153.167 243.551 148.141 239.434 141.888C235.317 135.634 232.309 128.589 230.408 120.753C228.508 112.917 227.558 104.961 227.558 96.8871C227.558 88.813 228.508 80.8582 230.408 73.0213C232.309 65.1853 235.317 58.1799 239.434 52.0056C243.551 45.8316 248.817 40.8445 255.23 37.0453C261.643 33.2452 269.363 31.3454 278.389 31.3454C287.415 31.3454 295.095 33.2452 301.429 37.0453C307.763 40.8445 312.989 45.8316 317.106 52.0056C321.223 58.1799 324.232 65.1853 326.132 73.0213C328.032 80.8582 328.982 88.813 328.982 96.8871V96.8871ZM415.442 21.3718C415.442 16.306 413.661 12.0317 410.098 8.54821C406.535 5.06555 402.22 3.32423 397.153 3.32423C392.085 3.32423 387.81 5.06555 384.326 8.54821C380.843 12.0317 379.101 16.306 379.101 21.3718V172.64C379.101 177.706 380.843 181.98 384.326 185.463C387.81 188.946 392.085 190.688 397.153 190.688C402.22 190.688 406.535 188.946 410.098 185.463C413.661 181.98 415.442 177.706 415.442 172.64V21.3718Z" fill="url(#paint1_linear_11_99)"/>
<path fill-rule="evenodd" clip-rule="evenodd" d="M473.636 121.822L493.351 101.874L548.457 184.038C550.042 186.255 552.021 187.917 554.396 189.025C556.771 190.134 559.305 190.688 561.997 190.688C565.006 190.688 567.619 190.134 569.835 189.025C572.052 187.917 573.873 186.532 575.299 184.87C576.724 183.207 577.792 181.347 578.505 179.29C579.218 177.231 579.574 175.332 579.574 173.59C579.574 169.632 578.387 165.991 576.011 162.666L516.154 78.8395L561.997 32.0579C564.531 29.5253 565.797 26.2798 565.797 22.3219C565.797 17.2557 564.055 13.1396 560.572 9.97353C557.088 6.80687 553.129 5.22399 548.696 5.22399C544.262 5.22399 540.54 6.80687 537.532 9.97353L473.636 78.8395V21.3718C473.636 16.306 471.855 12.0317 468.292 8.5482C464.729 5.06554 460.414 3.32422 455.347 3.32422C450.279 3.32422 446.004 5.06554 442.52 8.5482C439.037 12.0317 437.295 16.306 437.295 21.3718V172.64C437.295 177.706 439.037 181.98 442.52 185.463C446.004 188.946 450.279 190.688 455.347 190.688C460.414 190.688 464.729 188.946 468.292 185.463C471.855 181.98 473.636 177.706 473.636 172.64V121.822V121.822ZM699.525 106.386C703.959 106.386 707.681 104.843 710.689 101.756C713.698 98.6686 715.202 94.9873 715.202 90.7128C715.202 86.4383 713.698 82.7579 710.689 79.6706C707.681 76.5836 703.959 75.04 699.525 75.04H629.692V34.4327H712.827C717.103 34.4327 720.745 32.9292 723.753 29.9209C726.762 26.9127 728.267 23.1925 728.267 18.7598C728.267 14.4853 726.762 10.8442 723.753 7.83598C720.745 4.82833 717.103 3.32422 712.827 3.32422H612.115C608.315 3.32422 605.188 3.99721 602.733 5.34289C600.278 6.68857 598.339 8.35052 596.913 10.3297C595.488 12.3082 594.538 14.3664 594.063 16.504C593.588 18.6409 593.351 20.4224 593.351 21.8468V171.928C593.351 175.252 593.905 178.102 595.013 180.476C596.122 182.851 597.586 184.791 599.408 186.294C601.229 187.798 603.247 188.907 605.464 189.619C607.681 190.331 609.898 190.688 612.115 190.688H712.827C717.103 190.688 720.745 189.184 723.753 186.176C726.762 183.168 728.267 179.447 728.267 175.015C728.267 170.74 726.762 167.099 723.753 164.091C720.745 161.083 717.103 159.579 712.827 159.579H629.692V106.386H699.525V106.386Z" fill="url(#paint2_linear_11_99)"/>
<path fill-rule="evenodd" clip-rule="evenodd" d="M98.783 2.29919C89.1688 -0.344135 77.8268 4.99611 73.5788 14.1666L1.62186 169.504C-2.6265 178.675 1.76364 188.341 11.3779 190.984L13.9436 191.69C22.1468 193.945 31.8237 189.389 35.4485 181.564L108.539 23.7794C112.787 14.6086 108.397 4.94252 98.783 2.29919Z" fill="url(#paint3_linear_11_99)"/>
<path fill-rule="evenodd" clip-rule="evenodd" d="M130.749 126.721L167.577 113.209L192.056 165.888C196.618 175.704 192.063 186.775 181.935 190.491C171.807 194.206 159.789 189.216 155.228 179.4L130.749 126.721Z" fill="url(#paint4_linear_11_99)"/>
<path fill-rule="evenodd" clip-rule="evenodd" d="M102.875 66.0536L131.743 128.526L168.168 114.466L123.28 20.4543L102.875 66.0536Z" fill="url(#paint5_linear_11_99)"/>
<defs>
<linearGradient id="paint0_linear_11_99" x1="110.555" y1="143.045" x2="110.291" y2="116.18" gradientUnits="userSpaceOnUse">
<stop stop-color="#470060"/>
<stop offset="0.270588" stop-color="#470060"/>
<stop offset="0.769736" stop-color="#470060"/>
</linearGradient>
<linearGradient id="paint1_linear_11_99" x1="326.774" y1="178.244" x2="323.375" y2="9.89147" gradientUnits="userSpaceOnUse">
<stop stop-color="#470060"/>
<stop offset="0.270588" stop-color="#470060"/>
<stop offset="0.769736"/>
</linearGradient>
<linearGradient id="paint2_linear_11_99" x1="612.096" y1="175.46" x2="609.677" y2="12.8465" gradientUnits="userSpaceOnUse">
<stop stop-color="#470060"/>
<stop offset="0.270588" stop-color="#470060"/>
<stop offset="0.769736"/>
</linearGradient>
<linearGradient id="paint3_linear_11_99" x1="66.1792" y1="176.773" x2="59.5708" y2="11.5393" gradientUnits="userSpaceOnUse">
<stop stop-color="#470060"/>
<stop offset="0.270588" stop-color="#470060"/>
<stop offset="0.769736"/>
</linearGradient>
<linearGradient id="paint4_linear_11_99" x1="168.644" y1="185.34" x2="166.685" y2="117.241" gradientUnits="userSpaceOnUse">
<stop stop-color="#470060"/>
<stop offset="0.270588" stop-color="#470060"/>
<stop offset="0.769736" stop-color="#470060"/>
</linearGradient>
<linearGradient id="paint5_linear_11_99" x1="142.1" y1="119.743" x2="138.517" y2="26.063" gradientUnits="userSpaceOnUse">
<stop stop-color="#470060"/>
<stop offset="0.270588" stop-color="#470060"/>
<stop offset="0.769736"/>
</linearGradient>
</defs>
</svg>
