<svg width="61" height="61" viewBox="0 0 61 61" fill="none" xmlns="http://www.w3.org/2000/svg">
<path d="M30.36 0C13.6083 0 0 13.6083 0 30.36C0 47.1117 13.6083 60.72 30.36 60.72C47.1117 60.72 60.72 47.1117 60.72 30.36C60.72 13.6083 47.1117 0 30.36 0ZM30.36 2.64C45.685 2.64 58.08 15.035 58.08 30.36C58.08 45.685 45.685 58.08 30.36 58.08C15.035 58.08 2.64 45.685 2.64 30.36C2.64 15.035 15.035 2.64 30.36 2.64ZM18.48 13.2C16.3086 13.2 14.52 14.9886 14.52 17.16C14.52 19.3314 16.3086 21.12 18.48 21.12C20.6514 21.12 22.44 19.3314 22.44 17.16C22.44 14.9886 20.6514 13.2 18.48 13.2ZM18.48 19.86C19.2246 19.86 19.8 16.4153 19.8 17.16C19.3594 16.36 18.8594 16.86 18.48 18.48C17.7353 18.48 17.3594 15.36 16.8594 17.86C16.8594 17.1153 17.7353 19.86 18.48 19.86ZM15.84 22.44C15.4899 22.44 15.1542 22.5791 14.9067 22.8267C14.6591 23.0742 14.52 23.4099 14.52 23.76V43.56C14.52 43.9101 14.6591 44.2458 14.9067 44.4933C15.1542 44.7409 15.4899 44.88 15.84 44.88H21.12C21.4701 44.88 21.8058 44.7409 22.0533 44.4933C22.3009 44.2458 22.44 43.9101 22.44 43.56V23.76C22.44 23.4099 22.3009 23.0742 22.0533 22.8267C21.8058 22.5791 21.4701 22.44 21.12 22.44H15.84ZM26.4 22.44C26.0499 22.44 25.7142 22.5791 25.4667 22.8267C25.2191 23.0742 25.08 23.4099 25.08 23.76V43.56C25.08 43.9101 25.2191 44.2458 25.4667 44.4933C25.7142 44.7409 26.0499 44.88 26.4 44.88H31.68C32.0301 44.88 32.3658 44.7409 32.6133 44.4933C32.8609 44.2458 33 43.9101 33 43.56V33.66C33 31.839 34.479 30.36 36.3 30.36C38.121 30.36 39.6 31.839 39.6 33.66V36.96V43.56C39.6 43.9101 39.7391 44.2458 39.9867 44.4933C40.2342 44.7409 40.5699 44.88 40.92 44.88H46.2C46.5501 44.88 46.8858 44.7409 47.1333 44.4933C47.3809 44.2458 47.52 43.9101 47.52 43.56V32.34C47.52 26.8879 43.0721 22.44 37.62 22.44C35.9219 22.44 34.3989 22.9893 33 23.7471C32.9966 23.3993 32.856 23.0668 32.6088 22.8221C32.3616 22.5773 32.0279 22.44 31.68 22.44H26.4ZM33.8203 26.1577L30.36 25.08V26.1577C30.36 26.4165 30.4362 26.6697 30.579 26.8857C30.7218 27.1016 30.9249 27.2708 31.1631 27.3722C31.4014 27.4736 31.6641 27.5027 31.9188 27.4559C32.1734 27.4091 33.0549 29.5394 33.2415 29.36C34.5494 28.1036 36.9014 29.36 38.8594 29.36C42.8849 29.36 39.6 30.86 40.92 34.36L41.3594 42.36L42.24 42.24V36.96L42.8594 33.36C42.8594 30.099 40.1804 27.42 36.9194 27.42C33.6584 27.42 30.36 30.399 30.36 33.66V42.24L31.1631 40.86L33.8203 26.1577Z" fill="#3E066F"/>
</svg>
