<svg width="62" height="62" viewBox="0 0 62 62" fill="none" xmlns="http://www.w3.org/2000/svg">
<path d="M31 0C39.5543 0 47.3089 3.4775 52.925 9.07498C58.5411 14.6911 62 22.4271 62 31C62 39.5543 58.5225 47.3089 52.925 52.925C47.3089 58.5411 39.5729 62 31 62C22.4457 62 14.6911 58.5225 9.07498 52.925C3.45891 47.3089 0 39.5729 0 31C0 22.4457 3.4775 14.6911 9.07498 9.07498C14.6911 3.45891 22.4271 0 31 0ZM34.3659 21.144H39.9634V14.4307H34.3659C30.0516 14.4307 26.5369 17.9454 26.5369 22.2597V25.6257H22.0552V32.3389H26.5369V50.2472H33.2501V32.3389H38.8476L39.9634 25.6257H33.2501V22.2597C33.2501 21.6461 33.7708 21.144 34.3659 21.144ZM51.3443 10.6743C46.1374 5.46731 38.9592 2.25015 31.0186 2.25015C23.078 2.25015 15.8812 5.46731 10.6929 10.6743C5.4859 15.8812 2.26875 23.0594 2.26875 31C2.26875 38.9406 5.4859 46.1374 10.6929 51.3257C15.8998 56.5327 23.078 59.7498 31.0186 59.7498C38.9592 59.7498 46.156 56.5327 51.3443 51.3257C56.5513 46.1188 59.7684 38.9406 59.7684 31C59.7684 23.0594 56.5513 15.8626 51.3443 10.6743Z" fill="#3E066F"/>
</svg>
