<svg width="62" height="62" viewBox="0 0 62 62" fill="none" xmlns="http://www.w3.org/2000/svg">
<circle cx="31" cy="31" r="30" stroke="#3E066F" stroke-width="2"/>
<path d="M46.9998 31.4222C46.9998 29.86 46.8909 28.72 46.6552 27.5378H31.3262V34.5889H40.324C40.1426 36.3411 39.163 38.98 36.9861 40.7533L36.9556 40.9893L41.8023 45.3588L42.1381 45.3978C45.222 42.0833 46.9998 37.2066 46.9998 31.4222" fill="#3E066F"/>
<path d="M31.3275 50C35.7356 50 39.4363 48.311 42.1394 45.3978L36.9874 40.7532C35.6087 41.8721 33.7583 42.6532 31.3275 42.6532C27.01 42.6532 23.3455 39.3389 22.0393 34.7578L21.8478 34.7767L16.8081 39.3156L16.7422 39.5288C19.427 45.7354 24.9418 50 31.3275 50Z" fill="#3E066F"/>
<path d="M22.0386 34.7578C21.6939 33.5756 21.4944 32.3089 21.4944 31C21.4944 29.6911 21.6939 28.4244 22.0204 27.2422L22.0113 26.9905L16.9084 22.3787L16.7415 22.4711C15.6349 25.0467 15 27.9389 15 31C15 34.0611 15.6349 36.9533 16.7415 39.5288L22.0386 34.7578" fill="#3E066F"/>
<path d="M31.3275 19.3466C34.3932 19.3466 36.4612 20.8877 37.6404 22.1756L42.2482 16.94C39.4183 13.8789 35.7356 12 31.3275 12C24.9418 12 19.427 16.2644 16.7422 22.471L22.0211 27.2422C23.3455 22.6611 27.01 19.3466 31.3275 19.3466" fill="#3E066F"/>
</svg>
