<svg width="46" height="12" viewBox="0 0 46 12" fill="none" xmlns="http://www.w3.org/2000/svg">
<path fill-rule="evenodd" clip-rule="evenodd" d="M5.03278 7.03052H7.81592L8.69416 8.90726L4.1709 8.92908L5.03278 7.03052Z" fill="#3E066F"/>
<path fill-rule="evenodd" clip-rule="evenodd" d="M17.345 11.9013C18.2132 11.9013 18.9778 11.7362 19.6389 11.406C20.2999 11.0758 20.8524 10.634 21.2964 10.0804C21.7404 9.52686 22.0758 8.89321 22.3027 8.17941C22.5297 7.46562 22.6431 6.72026 22.6431 5.94334C22.6431 5.17614 22.5297 4.43565 22.3027 3.72186C22.0758 3.00807 21.7404 2.3744 21.2964 1.82089C20.8524 1.26732 20.2999 0.825444 19.6389 0.49527C18.9778 0.165061 18.2132 0 17.345 0C16.4669 0 15.6973 0.165061 15.0363 0.49527C14.3753 0.825444 13.8228 1.26732 13.3788 1.82089C12.9348 2.3744 12.6019 3.00807 12.3798 3.72186C12.1579 4.43565 12.0469 5.17614 12.0469 5.94334C12.0469 6.72026 12.1579 7.46562 12.3798 8.17941C12.6019 8.89321 12.9348 9.52686 13.3788 10.0804C13.8228 10.634 14.3753 11.0758 15.0363 11.406C15.6973 11.7362 16.4669 11.9013 17.345 11.9013ZM20.4972 5.94334C20.4972 6.43861 20.438 6.92664 20.3196 7.40733C20.2012 7.88806 20.0138 8.3202 19.7573 8.70382C19.5008 9.08741 19.1751 9.39573 18.7805 9.62881C18.3859 9.86192 17.9074 9.97844 17.345 9.97844C16.7826 9.97844 16.3017 9.86192 15.9021 9.62881C15.5025 9.39573 15.1744 9.08741 14.9179 8.70382C14.6614 8.3202 14.474 7.88806 14.3556 7.40733C14.2372 6.92664 14.178 6.43861 14.178 5.94334C14.178 5.44806 14.2372 4.96008 14.3556 4.47934C14.474 3.99866 14.6614 3.56893 14.9179 3.19018C15.1744 2.81144 15.5025 2.50552 15.9021 2.27247C16.3017 2.03936 16.7826 1.92282 17.345 1.92282C17.9074 1.92282 18.3859 2.03936 18.7805 2.27247C19.1751 2.50552 19.5008 2.81144 19.7573 3.19018C20.0138 3.56893 20.2012 3.99866 20.3196 4.47934C20.438 4.96008 20.4972 5.44806 20.4972 5.94334V5.94334ZM25.8841 1.31101C25.8841 1.00026 25.7731 0.738063 25.5511 0.524373C25.3292 0.310736 25.0603 0.203918 24.7446 0.203918C24.4289 0.203918 24.1625 0.310736 23.9454 0.524373C23.7284 0.738063 23.6199 1.00026 23.6199 1.31101V10.5903C23.6199 10.901 23.7284 11.1632 23.9454 11.3769C24.1625 11.5905 24.4289 11.6974 24.7446 11.6974C25.0603 11.6974 25.3292 11.5905 25.5511 11.3769C25.7731 11.1632 25.8841 10.901 25.8841 10.5903V1.31101Z" fill="#3E066F"/>
<path fill-rule="evenodd" clip-rule="evenodd" d="M29.5104 7.47285L30.7387 6.24919L34.1721 11.2894C34.2708 11.4254 34.3941 11.5274 34.5421 11.5953C34.6901 11.6633 34.848 11.6973 35.0157 11.6973C35.2031 11.6973 35.3659 11.6633 35.5041 11.5953C35.6422 11.5274 35.7556 11.4424 35.8444 11.3404C35.9332 11.2384 35.9998 11.1243 36.0442 10.9981C36.0886 10.8718 36.1108 10.7553 36.1108 10.6484C36.1108 10.4057 36.0368 10.1823 35.8889 9.97838L32.1594 4.83619L35.0157 1.96647C35.1735 1.81111 35.2525 1.61202 35.2525 1.36923C35.2525 1.05846 35.1439 0.805963 34.9269 0.611746C34.7099 0.417494 34.4632 0.320395 34.1869 0.320395C33.9107 0.320395 33.6788 0.417494 33.4914 0.611746L29.5104 4.83619V1.31095C29.5104 1.0002 29.3994 0.738003 29.1774 0.524312C28.9554 0.310676 28.6865 0.203857 28.3708 0.203857C28.0551 0.203857 27.7887 0.310676 27.5717 0.524312C27.3546 0.738003 27.2461 1.0002 27.2461 1.31095V10.5902C27.2461 10.9009 27.3546 11.1632 27.5717 11.3768C27.7887 11.5905 28.0551 11.6973 28.3708 11.6973C28.6865 11.6973 28.9554 11.5905 29.1774 11.3768C29.3994 11.1632 29.5104 10.9009 29.5104 10.5902V7.47285V7.47285ZM43.5844 6.52599C43.8607 6.52599 44.0925 6.4313 44.28 6.24193C44.4675 6.05256 44.5612 5.82675 44.5612 5.56453C44.5612 5.30232 44.4675 5.07656 44.28 4.88717C44.0925 4.69781 43.8607 4.60311 43.5844 4.60311H39.2334V2.11214H44.4132C44.6796 2.11214 44.9065 2.01991 45.0939 1.83538C45.2814 1.65085 45.3752 1.42264 45.3752 1.15072C45.3752 0.888511 45.2814 0.665156 45.0939 0.480622C44.9065 0.296124 44.6796 0.203857 44.4132 0.203857H38.1383C37.9015 0.203857 37.7067 0.245141 37.5537 0.327689C37.4008 0.410237 37.28 0.512186 37.1912 0.633592C37.1024 0.754961 37.0432 0.881218 37.0136 1.01234C36.984 1.14343 36.9692 1.25271 36.9692 1.34009V10.5465C36.9692 10.7504 37.0037 10.9252 37.0728 11.0709C37.1418 11.2166 37.2331 11.3356 37.3466 11.4278C37.46 11.5201 37.5858 11.5881 37.7239 11.6317C37.8621 11.6754 38.0002 11.6973 38.1383 11.6973H44.4132C44.6796 11.6973 44.9065 11.605 45.0939 11.4205C45.2814 11.236 45.3752 11.0078 45.3752 10.7359C45.3752 10.4737 45.2814 10.2503 45.0939 10.0658C44.9065 9.88124 44.6796 9.78901 44.4132 9.78901H39.2334V6.52599H43.5844V6.52599Z" fill="#3E066F"/>
<path fill-rule="evenodd" clip-rule="evenodd" d="M6.1547 0.141129L6.15468 0.141111C5.55566 -0.0210387 4.84902 0.306567 4.58434 0.869114L0.10105 10.398C-0.163644 10.9605 0.109884 11.5535 0.708901 11.7156L0.868762 11.7589C1.37986 11.8973 1.98279 11.6178 2.20862 11.1378L6.76255 1.45879C7.02723 0.896223 6.7537 0.303279 6.1547 0.141129V0.141129Z" fill="url(#paint0_linear_810_432)"/>
<path fill-rule="evenodd" clip-rule="evenodd" d="M8.14648 7.77344L10.4411 6.94458L11.9663 10.1761C12.2505 10.7782 11.9667 11.4573 11.3357 11.6853C10.7047 11.9132 9.95587 11.6071 9.6717 11.0049L8.14648 7.77344Z" fill="#3E066F"/>
<path fill-rule="evenodd" clip-rule="evenodd" d="M6.41016 4.05184L8.2088 7.88407L10.4783 7.02157L7.68145 1.25464L6.41016 4.05184Z" fill="url(#paint1_linear_810_432)"/>
<defs>
<linearGradient id="paint0_linear_810_432" x1="2.77216" y1="2.86435" x2="3.14691" y2="11.0291" gradientUnits="userSpaceOnUse">
<stop stop-color="#3E066F"/>
<stop offset="0.258824" stop-color="#3E066F"/>
<stop offset="1"/>
</linearGradient>
<linearGradient id="paint1_linear_810_432" x1="8.77403" y1="6.09338" x2="8.63518" y2="1.59856" gradientUnits="userSpaceOnUse">
<stop stop-color="#3E066F"/>
<stop offset="0.270588" stop-color="#3E066F"/>
<stop offset="1"/>
</linearGradient>
</defs>
</svg>
